<?xml version="1.0" encoding="UTF-8" standalone="no"?>
<!-- Created with Inkscape (http://www.inkscape.org/) -->

<svg
   xmlns:dc="http://purl.org/dc/elements/1.1/"
   xmlns:cc="http://creativecommons.org/ns#"
   xmlns:rdf="http://www.w3.org/1999/02/22-rdf-syntax-ns#"
   xmlns:svg="http://www.w3.org/2000/svg"
   xmlns="http://www.w3.org/2000/svg"
   xmlns:sodipodi="http://sodipodi.sourceforge.net/DTD/sodipodi-0.dtd"
   xmlns:inkscape="http://www.inkscape.org/namespaces/inkscape"
   width="40"
   height="40"
   viewBox="0 0 10.583333 10.583334"
   version="1.1"
   id="svg8"
   enable-background="new"
   inkscape:version="0.92.0 r15299"
   sodipodi:docname="Account.svg">
  <defs
     id="defs2">
    <filter
       inkscape:collect="always"
       style="color-interpolation-filters:sRGB"
       id="filter4493">
      <feBlend
         inkscape:collect="always"
         mode="multiply"
         in2="BackgroundImage"
         id="feBlend4495" />
    </filter>
  </defs>
  <sodipodi:namedview
     id="base"
     pagecolor="#ffffff"
     bordercolor="#666666"
     borderopacity="1.0"
     inkscape:pageopacity="0.0"
     inkscape:pageshadow="2"
     inkscape:zoom="11.2"
     inkscape:cx="6.1503839"
     inkscape:cy="26.772031"
     inkscape:document-units="mm"
     inkscape:current-layer="layer1"
     showgrid="false"
     units="px"
     inkscape:pagecheckerboard="false"
     inkscape:window-width="1920"
     inkscape:window-height="1057"
     inkscape:window-x="-8"
     inkscape:window-y="-8"
     inkscape:window-maximized="1" />
  <metadata
     id="metadata5">
    <rdf:RDF>
      <cc:Work
         rdf:about="">
        <dc:format>image/svg+xml</dc:format>
        <dc:type
           rdf:resource="http://purl.org/dc/dcmitype/StillImage" />
        <dc:title></dc:title>
      </cc:Work>
    </rdf:RDF>
  </metadata>
  <g
     inkscape:label="Layer 1"
     inkscape:groupmode="layer"
     id="layer1"
     transform="translate(0,-286.41665)">
    <path
       style="fill:none;fill-opacity:1;fill-rule:evenodd;stroke:#000000;stroke-width:0.32756287;stroke-miterlimit:4;stroke-dasharray:none;stroke-opacity:1"
       id="path4489"
       sodipodi:type="arc"
       sodipodi:cx="5.2916665"
       sodipodi:cy="291.70831"
       sodipodi:rx="4.9325247"
       sodipodi:ry="5.0164165"
       sodipodi:start="0"
       sodipodi:end="6.2826052"
       d="m 10.224191,291.70831 a 4.9325247,5.0164165 0 0 1 -4.9318091,5.01642 4.9325247,5.0164165 0 0 1 -4.93323987,-5.01496 4.9325247,5.0164165 0 0 1 4.93037847,-5.01787 4.9325247,5.0164165 0 0 1 4.9346695,5.0135"
       sodipodi:open="true" />
    <path
       style="fill:#000001;fill-opacity:1;fill-rule:evenodd;stroke-width:0.25901252;filter:url(#filter4493)"
       id="path4491"
       sodipodi:type="arc"
       sodipodi:cx="5.3341718"
       sodipodi:cy="290.54822"
       sodipodi:rx="0.74334341"
       sodipodi:ry="0.76839989"
       sodipodi:start="0"
       sodipodi:end="6.2826093"
       d="m 6.0775152,290.54822 a 0.74334341,0.76839989 0 0 1 -0.7432364,0.7684 0.74334341,0.76839989 0 0 1 -0.7434504,-0.76818 0.74334341,0.76839989 0 0 1 0.7430222,-0.76862 0.74334341,0.76839989 0 0 1 0.7436645,0.76796 l -0.7433433,4.4e-4 z"
       transform="matrix(1.8481254,0,0,1.8696895,-4.6127567,-253.45555)" />
    <g
       id="g4504"
       transform="matrix(1.8481254,0,0,1.8696895,-4.6127567,-253.45555)">
      <path
         d="m 6.6483296,292.423 a 1.3112911,0.8018086 0 0 1 -1.3111023,0.80181 1.3112911,0.8018086 0 0 1 -1.3114798,-0.80157 1.3112911,0.8018086 0 0 1 1.3107245,-0.80204 1.3112911,0.8018086 0 0 1 1.3118574,0.80134"
         sodipodi:open="true"
         sodipodi:end="6.2826093"
         sodipodi:start="0"
         sodipodi:ry="0.8018086"
         sodipodi:rx="1.3112911"
         sodipodi:cy="292.423"
         sodipodi:cx="5.3370385"
         sodipodi:type="arc"
         id="path4501"
         style="fill:#000000;fill-opacity:1;fill-rule:evenodd;stroke-width:0.26458332" />
    </g>
  </g>
</svg>
